<svg width="432" height="430" viewBox="0 0 432 430" fill="none" xmlns="http://www.w3.org/2000/svg">
<path d="M424.605 277.232H326.938V417.024H424.605V277.232Z" fill="#E0E0E0"/>
<path d="M395.62 277.232H297.953V417.024H395.62V277.232Z" fill="#F5F5F5"/>
<path d="M388.431 306.007H304.598V283.847H388.431V306.007ZM305.628 305.227H387.401V284.627H305.628V305.227V305.227Z" fill="#E0E0E0"/>
<path d="M358.042 288.653H336.123C333.39 288.653 331.175 286.975 331.175 284.906V284.237H362.99V284.906C362.99 286.975 360.774 288.653 358.042 288.653Z" fill="#731FB6"/>
<path d="M388.431 334.154H304.598V311.995H388.431V334.154ZM305.628 333.374H387.401V312.775H305.628V333.374V333.374Z" fill="#E0E0E0"/>
<path d="M358.041 316.801H336.123C333.39 316.801 331.175 315.123 331.175 313.054V312.385H362.99V313.054C362.99 315.123 360.774 316.801 358.041 316.801Z" fill="#731FB6"/>
<path d="M388.431 362.303H304.598V340.143H388.431V362.303ZM305.628 361.523H387.401V340.923H305.628V361.523V361.523Z" fill="#E0E0E0"/>
<path d="M358.042 344.949H336.123C333.39 344.949 331.175 343.271 331.175 341.202V340.533H362.99V341.202C362.99 343.271 360.774 344.949 358.042 344.949Z" fill="#731FB6"/>
<path d="M388.431 390.45H304.598V368.291H388.431V390.45ZM305.628 389.671H387.401V369.071H305.628V389.671V389.671Z" fill="#E0E0E0"/>
<path d="M358.041 373.097H336.123C333.39 373.097 331.175 371.419 331.175 369.35V368.681H362.99V369.35C362.99 371.419 360.774 373.097 358.041 373.097Z" fill="#731FB6"/>
<path d="M399.705 272H293.621V278.963H399.705V272Z" fill="#B32EDC"/>
<path d="M431.606 272H399.705V278.963H431.606V272Z" fill="#731FB6"/>
<path d="M303.086 417.024H297.953V424.165H303.086V417.024Z" fill="#E0E0E0"/>
<path d="M334.798 417.024H329.666V424.165H334.798V417.024Z" fill="#E0E0E0"/>
<path d="M392.724 417.024H387.592V424.165H392.724V417.024Z" fill="#E0E0E0"/>
<path d="M421.687 417.024H416.555V424.165H421.687V417.024Z" fill="#E0E0E0"/>
<path d="M413.719 424.833C413.719 424.977 321.769 425.093 208.369 425.093C94.9302 425.093 3 424.977 3 424.833C3 424.689 94.9302 424.573 208.369 424.573C321.769 424.573 413.719 424.689 413.719 424.833Z" fill="#263238"/>
<path d="M43.2191 394.473C43.2191 394.473 38.8144 364.191 39.1815 346.572C39.5485 328.953 39.1598 309.132 39.1598 309.132H41.1894C41.1894 309.132 39.815 344.104 41.3109 365.196C42.8057 386.272 46.7441 394.473 46.7441 394.473H43.2191" fill="#263238"/>
<path d="M56.3391 275.061C55.9309 274.026 55.4292 272.948 54.4899 272.353C53.2022 271.537 51.5142 271.876 50.0771 272.385C43.9444 274.553 38.5081 285.988 36.0292 292.002L44.1711 319.435C58.8664 305.801 61.4114 287.916 56.3391 275.061Z" fill="#455A64"/>
<path d="M54.0145 273.463C54.025 273.468 53.984 273.591 53.8962 273.821C53.7915 274.084 53.6595 274.414 53.4976 274.82C53.1406 275.684 52.6399 276.939 52.0414 278.497C50.8417 281.612 49.3147 285.968 47.9494 290.874C46.5896 295.784 45.653 300.304 45.0752 303.592C44.7848 305.235 44.5667 306.569 44.4277 307.493C44.3572 307.924 44.2997 308.276 44.2541 308.555C44.2107 308.797 44.1823 308.924 44.1709 308.922C44.1593 308.921 44.1652 308.791 44.187 308.546C44.2162 308.265 44.2531 307.91 44.2983 307.475C44.3975 306.545 44.5803 305.204 44.8412 303.552C45.3601 300.248 46.2625 295.708 47.626 290.785C48.9951 285.865 50.5621 281.509 51.8206 278.411C52.4485 276.861 52.9834 275.617 53.3776 274.769C53.5632 274.373 53.7143 274.05 53.8344 273.794C53.9422 273.572 54.0038 273.458 54.0145 273.463Z" fill="#263238"/>
<path d="M40.5525 326.013C32.9211 321.796 28.4235 313.863 28.0038 305.154C27.7105 299.066 29.5807 293.092 31.7001 287.378C31.8839 286.882 32.102 286.348 32.5621 286.088C33.2022 285.725 34.0032 286.048 34.6426 286.412C40.1879 289.569 43.5478 295.59 45.3356 301.716C46.5253 305.792 47.1412 310.09 46.591 314.3C46.0407 318.511 43.634 323.091 40.5525 326.013Z" fill="#455A64"/>
<path d="M40.5525 326.013C40.5409 326.012 40.531 325.886 40.5226 325.645C40.5173 325.367 40.5106 325.019 40.5024 324.592C40.4999 323.678 40.463 322.356 40.3881 320.724C40.2413 317.462 39.8134 312.964 38.9715 308.051C38.1247 303.138 37.0975 298.738 36.3407 295.557C35.9674 294.001 35.6615 292.726 35.4374 291.791C35.3421 291.375 35.2644 291.036 35.2024 290.765C35.1523 290.529 35.1314 290.404 35.1426 290.401C35.1538 290.398 35.1966 290.517 35.2679 290.747C35.3459 291.014 35.4438 291.349 35.5638 291.759C35.8147 292.638 36.1614 293.916 36.571 295.5C37.3873 298.668 38.4531 303.067 39.3024 307.995C40.1467 312.922 40.5389 317.441 40.6252 320.715C40.6699 322.352 40.6707 323.678 40.633 324.593C40.6157 325.02 40.6015 325.368 40.5902 325.646C40.5767 325.887 40.5641 326.013 40.5525 326.013Z" fill="#263238"/>
<g opacity="0.3">
<path d="M40.5525 326.013C32.9211 321.796 28.4235 313.863 28.0038 305.154C27.7105 299.066 29.5807 293.092 31.7001 287.378C31.8839 286.882 32.102 286.348 32.5621 286.088C33.2022 285.725 34.0032 286.048 34.6426 286.412C40.1879 289.569 43.5478 295.59 45.3356 301.716C46.5253 305.792 47.1412 310.09 46.591 314.3C46.0407 318.511 43.634 323.091 40.5525 326.013Z" fill="#252525"/>
</g>
<path d="M49.1624 372.346C56.6734 373.996 62.8577 379.294 70.1036 381.87C74.8977 383.574 80.3192 384.177 84.1469 387.529C83.2285 385.21 81.0511 383.666 78.9356 382.344C72.9767 378.622 66.596 375.576 59.955 373.283C56.5461 372.106 52.8472 371.123 49.3735 372.092" fill="#455A64"/>
<path d="M38.303 379.037C28.8969 378.886 18.993 370.877 9.63025 370.4C19.4281 367.236 33.4572 369.82 38.303 379.037Z" fill="#455A64"/>
<path d="M41.9783 356.473C46.7548 354.752 51.999 354.67 57.016 355.45C62.033 356.23 66.8785 357.838 71.6966 359.44C71.2139 356.176 68.5709 353.722 66.088 351.55C64.2196 349.916 62.3368 348.271 60.193 347.019C58.0493 345.768 55.6035 344.92 53.1234 345.025C50.1313 345.151 47.2828 346.695 45.3205 348.957C43.3584 351.22 42.303 353.496 41.9783 356.473Z" fill="#455A64"/>
<path d="M22.6734 346.088C16.7522 341.032 7.7836 341.527 0 341.702C11.965 347.423 24.8585 355.266 35.1633 363.614C35.4797 358.112 30.153 352.473 22.6734 346.088Z" fill="#455A64"/>
<g opacity="0.3">
<path d="M22.6734 346.088C16.7522 341.032 7.7836 341.527 0 341.702C11.965 347.423 24.8585 355.266 35.1633 363.614C35.4797 358.112 30.153 352.473 22.6734 346.088Z" fill="#252525"/>
</g>
<path d="M44.6414 339.109C47.6186 337.125 50.6308 335.233 53.7473 333.817C56.8638 332.401 59.7715 330.145 62.7816 328.515C66.6846 326.402 70.0659 323.464 73.6485 320.844C77.231 318.224 81.1664 315.859 85.5502 315.165C81.9753 314.427 78.2402 314.829 74.7189 315.791C71.1977 316.752 67.8528 318.258 64.5246 319.757C59.9056 321.838 55.2065 323.97 51.4308 327.348C47.6552 330.725 44.2423 334.059 44.6414 339.109Z" fill="#455A64"/>
<path d="M69.9317 379.037C69.9259 379.047 69.8235 379.003 69.634 378.909C69.4119 378.794 69.141 378.653 68.8132 378.484C68.1049 378.107 67.0878 377.548 65.8072 376.904C65.1734 376.57 64.4709 376.22 63.7085 375.863C62.954 375.488 62.1343 375.118 61.266 374.743C59.529 374.001 57.5896 373.227 55.4742 372.724C53.3654 372.207 51.2638 372.093 49.4405 372.573C48.5207 372.795 47.6545 373.014 46.884 373.336C46.1106 373.649 45.4209 374.016 44.8202 374.395C43.6148 375.154 42.773 375.958 42.2267 376.538C41.6818 377.121 41.4166 377.479 41.3925 377.461C41.3832 377.454 41.4414 377.359 41.5612 377.184C41.6788 377.007 41.8692 376.759 42.1294 376.451C42.6514 375.838 43.4802 374.995 44.6914 374.196C45.2949 373.797 45.9921 373.41 46.7781 373.079C47.5626 372.738 48.4482 372.503 49.369 372.272C51.2324 371.762 53.4166 371.871 55.5514 372.398C57.6999 372.908 59.6493 373.698 61.3899 374.459C62.2596 374.845 63.0788 375.226 63.8305 375.613C64.5907 375.982 65.2891 376.345 65.9172 376.694C67.1871 377.366 68.1881 377.957 68.8773 378.37C69.193 378.562 69.4539 378.72 69.6676 378.85C69.8464 378.963 69.9375 379.027 69.9317 379.037Z" fill="#263238"/>
<path d="M31.2869 374.376C31.2951 374.354 31.5039 374.417 31.8761 374.548C32.25 374.675 32.7762 374.9 33.4087 375.215C34.6744 375.84 36.3393 376.904 37.9027 378.401C39.462 379.904 40.5925 381.525 41.2675 382.765C41.6069 383.384 41.8531 383.901 41.9945 384.27C42.1411 384.636 42.2116 384.842 42.1903 384.851C42.1361 384.875 41.785 384.079 41.0623 382.884C40.3429 381.689 39.2029 380.121 37.6702 378.643C36.1332 377.172 34.5203 376.095 33.2979 375.425C32.0753 374.75 31.2652 374.431 31.2869 374.376Z" fill="#263238"/>
<path d="M10.4755 345.615C10.4794 345.604 10.6172 345.645 10.8763 345.734C11.1675 345.837 11.5418 345.971 12.0052 346.136C12.5067 346.321 13.1018 346.54 13.7855 346.792C14.4791 347.05 15.2325 347.43 16.0848 347.806C19.4714 349.343 23.978 351.931 28.3305 355.608C30.477 357.476 32.4177 359.376 34.041 361.231C35.6581 363.091 37.0271 364.84 38.0941 366.367C39.1678 367.888 39.9824 369.155 40.5404 370.032C40.8046 370.446 41.0179 370.78 41.1839 371.04C41.3297 371.272 41.4019 371.397 41.3925 371.404C41.3831 371.411 41.2926 371.299 41.1284 371.079C40.9639 370.86 40.7254 370.533 40.4317 370.104C39.8397 369.249 38.9966 368.004 37.9015 366.505C36.8133 365.002 35.4311 363.276 33.8098 361.437C32.1822 359.602 30.2464 357.721 28.1131 355.864C23.7873 352.209 19.3308 349.607 15.9836 348.021C15.1413 347.633 14.3976 347.239 13.7132 346.965C13.0394 346.694 12.453 346.457 11.9588 346.258C11.5051 346.069 11.1387 345.916 10.8537 345.797C10.6022 345.689 10.4718 345.626 10.4755 345.615Z" fill="#263238"/>
<path d="M56.0921 351.186C56.0859 351.208 55.8183 351.172 55.3422 351.089C55.0834 351.041 54.7968 350.989 54.4779 350.93C54.1421 350.865 53.7495 350.863 53.3226 350.819C51.6311 350.696 49.1668 350.836 46.8581 352.094C45.6932 352.684 44.7159 353.479 43.9165 354.277C43.105 355.069 42.4894 355.894 42.0254 356.615C41.0817 358.06 40.7902 359.103 40.7325 359.083C40.7142 359.078 40.7669 358.813 40.9237 358.35C41.0965 357.895 41.3629 357.234 41.8239 356.49C42.2701 355.74 42.8781 354.883 43.6965 354.06C44.5024 353.231 45.5016 352.405 46.7014 351.798C49.0828 350.5 51.6318 350.396 53.3432 350.583C53.7759 350.643 54.1727 350.661 54.5094 350.745C54.8273 350.825 55.113 350.897 55.371 350.962C55.8421 351.085 56.0983 351.164 56.0921 351.186Z" fill="#263238"/>
<path d="M65.5457 321.858C65.5508 321.869 65.4281 321.944 65.1898 322.078C64.919 322.225 64.571 322.414 64.1403 322.648C63.2278 323.139 61.9149 323.865 60.3191 324.805C58.7313 325.758 56.8603 326.927 54.8701 328.35C52.8856 329.776 50.7536 331.434 48.786 333.447C47.8156 334.461 46.9212 335.518 46.2977 336.669C45.6817 337.853 45.0927 338.996 44.5511 340.094C43.4633 342.288 42.5775 344.308 41.9377 346.043C41.3 347.78 40.9022 349.225 40.6663 350.232C40.4256 351.239 40.3387 351.807 40.3058 351.801C40.2943 351.8 40.3076 351.657 40.3433 351.385C40.3773 351.114 40.4345 350.714 40.5388 350.205C40.7363 349.184 41.1014 347.72 41.7145 345.963C42.3292 344.207 43.1975 342.166 44.2733 339.958C44.809 338.853 45.3934 337.704 46.0058 336.518C46.6531 335.315 47.5616 334.242 48.5448 333.214C50.5365 331.176 52.6866 329.518 54.691 328.098C56.701 326.682 58.5917 325.529 60.1995 324.6C61.8151 323.683 63.148 322.988 64.0803 322.532C64.5232 322.321 64.881 322.15 65.1595 322.017C65.4078 321.903 65.5406 321.848 65.5457 321.858Z" fill="#263238"/>
<path d="M39.1701 350.339C39.1472 350.342 39.0819 350.059 38.9835 349.546C38.8736 348.965 38.7359 348.238 38.5721 347.373C38.2137 345.542 37.666 343.02 36.7935 340.314C35.9286 337.605 34.8762 335.248 34.1071 333.547C33.742 332.745 33.4349 332.071 33.19 331.533C32.9761 331.056 32.8677 330.787 32.8884 330.777C32.9091 330.767 33.0571 331.016 33.3071 331.476C33.557 331.935 33.9078 332.606 34.3215 333.446C35.1469 335.123 36.2411 337.481 37.1128 340.211C37.992 342.937 38.506 345.484 38.8056 347.33C38.953 348.255 39.0588 349.005 39.1127 349.526C39.1715 350.046 39.1931 350.335 39.1701 350.339Z" fill="#263238"/>
<path d="M38.4897 328.939C38.2538 325.385 37.0959 321.932 35.4308 318.784C30.8652 310.152 22.2849 303.753 12.7094 301.84C19.7213 312.29 26.733 322.741 33.745 333.192L36.4613 338.788C38.3145 335.747 38.7256 332.492 38.4897 328.939Z" fill="#455A64"/>
<path d="M68.6638 390.727H19.75V399.396H68.6638V390.727Z" fill="#E37EE7"/>
<path d="M23.403 397.677L27.5681 424.577H60.0408L65.011 397.677H23.403Z" fill="#E37EE7"/>
<path d="M68.6368 399.407C68.6368 399.502 57.6036 399.579 43.9966 399.579C30.3849 399.579 19.3542 399.502 19.3542 399.407C19.3542 399.312 30.3849 399.235 43.9966 399.235C57.6036 399.235 68.6368 399.312 68.6368 399.407Z" fill="#263238"/>
<path d="M270.426 98.2588H138.006C110.944 98.2588 89.0067 76.3211 89.0067 49.2596V49.2595C89.0067 22.198 110.944 0.2603 138.006 0.2603H270.426C297.487 0.2603 319.425 22.198 319.425 49.2595V49.2596C319.425 76.3211 297.487 98.2588 270.426 98.2588Z" fill="#E0E0E0"/>
<path d="M270.426 98.2589C270.426 98.2589 270.926 98.2157 271.901 98.1577C272.392 98.1294 272.998 98.0944 273.718 98.0529C274.438 97.9907 275.284 98.022 276.221 97.8329C277.163 97.6854 278.216 97.5205 279.376 97.3387C279.667 97.2933 279.964 97.247 280.268 97.1996C280.565 97.1226 280.87 97.0439 281.181 96.9636C281.802 96.8017 282.45 96.633 283.124 96.4576C283.794 96.2715 284.504 96.1248 285.214 95.8876C285.917 95.6283 286.644 95.3598 287.396 95.0824C288.143 94.7938 288.935 94.5442 289.714 94.1987C290.481 93.8268 291.272 93.4438 292.085 93.0497C293.751 92.3336 295.332 91.2519 297.054 90.225C297.937 89.7422 298.707 89.0495 299.563 88.4405C299.983 88.1249 300.409 87.8058 300.839 87.483L301.487 86.9963L302.095 86.4463C302.908 85.7057 303.737 84.9492 304.584 84.1769C305.426 83.3999 306.159 82.4807 306.976 81.6134C307.373 81.1692 307.787 80.7309 308.182 80.2701C308.545 79.783 308.912 79.2913 309.282 78.795C309.652 78.2989 310.025 77.7982 310.402 77.293L310.965 76.5291L311.461 75.7098C314.301 71.4372 316.516 66.322 317.863 60.672C319.2 55.0218 319.6 48.7884 318.703 42.3991C317.81 36.0178 315.554 29.4977 311.829 23.5213C308.121 17.5523 302.962 12.0849 296.509 8.0834C295.698 7.5918 294.885 7.0981 294.067 6.6023C293.248 6.1102 292.353 5.7507 291.494 5.3155C290.615 4.9218 289.776 4.4245 288.855 4.1106C287.942 3.7772 287.026 3.4425 286.106 3.1065C285.644 2.9477 285.192 2.7491 284.718 2.622L283.286 2.255C282.33 2.0097 281.371 1.7634 280.407 1.5162C279.43 1.336 278.439 1.2083 277.449 1.0507C276.457 0.916 275.47 0.696999 274.457 0.693001C270.435 0.3997 266.305 0.516499 262.136 0.494999C257.964 0.496799 253.736 0.498501 249.454 0.500298C215.202 0.5065 177.545 0.5135 138.02 0.520699C133.1 0.613598 128.236 1.3189 123.574 2.6958C118.954 4.203 114.587 6.3194 110.593 8.9648C106.652 11.6956 103.166 14.9731 100.144 18.5907C97.1718 22.2616 94.8366 26.3516 92.9792 30.5953C92.1913 32.7747 91.3126 34.9151 90.8338 37.1688C90.162 39.3731 89.933 41.6571 89.5675 43.9022C89.4341 45.0308 89.4318 46.1701 89.3573 47.2992L89.2711 48.9934C89.2456 49.5575 89.313 50.1208 89.3293 50.6834C89.3858 51.8087 89.4421 52.9312 89.4982 54.0507C89.6283 55.1628 89.825 56.2652 89.9841 57.3685L90.2354 59.0199L90.6436 60.6348C90.9224 61.7082 91.2005 62.7787 91.4778 63.8462C91.8567 64.8823 92.2345 65.9155 92.6113 66.9458C92.8105 67.4564 92.9633 67.9858 93.1998 68.479L93.9107 69.9555C95.6745 73.9562 98.1862 77.5171 100.869 80.8116C101.585 81.6002 102.299 82.3864 103.011 83.1701L103.546 83.7559L104.132 84.2888L105.301 85.3521C106.803 86.8338 108.524 88.0279 110.182 89.2776C110.587 89.6041 111.025 89.8805 111.473 90.141L112.797 90.9459L114.116 91.7483L114.774 92.1473L115.467 92.4811C117.316 93.3607 119.115 94.3215 121.044 94.937C121.997 95.2675 122.924 95.6686 123.889 95.938C124.859 96.188 125.826 96.4371 126.789 96.6852L128.232 97.0514L129.699 97.2758C130.675 97.4253 131.647 97.5742 132.615 97.7226C133.584 97.8546 134.565 97.8447 135.533 97.9127C136.505 97.9525 137.468 98.0334 138.436 98.0395C140.372 98.0406 142.292 98.0418 144.196 98.0429C159.428 98.0543 173.617 98.065 186.571 98.0747C212.472 98.1096 233.433 98.1379 247.928 98.1575C255.166 98.1787 260.788 98.1952 264.61 98.2064C266.51 98.2177 267.962 98.2264 268.948 98.2322C269.925 98.241 270.426 98.2589 270.426 98.2589C270.426 98.2589 269.925 98.2767 268.948 98.2855C267.962 98.2913 266.51 98.3 264.61 98.3113C260.788 98.3225 255.166 98.339 247.928 98.3602C233.433 98.3798 212.472 98.408 186.571 98.443C173.617 98.4527 159.428 98.4633 144.196 98.4748C142.292 98.4759 140.372 98.477 138.436 98.4782C137.467 98.4733 136.49 98.3934 135.511 98.3542C134.534 98.2869 133.545 98.2972 132.566 98.1653C131.589 98.0168 130.608 97.8676 129.623 97.7179L128.143 97.4926L126.686 97.1249C125.713 96.8754 124.737 96.6249 123.757 96.3734C122.784 96.1023 121.847 95.6992 120.885 95.3663C118.937 94.746 117.119 93.7791 115.252 92.8922L114.553 92.5556L113.887 92.1537L112.555 91.345L111.218 90.5334C110.766 90.2706 110.323 89.9917 109.914 89.6628C108.239 88.4032 106.5 87.1979 104.982 85.7038L103.801 84.6309L103.209 84.0931L102.668 83.5023C101.949 82.7115 101.227 81.9182 100.503 81.1224C97.7911 77.7983 95.2531 74.203 93.468 70.1636L92.7493 68.6725C92.5103 68.1744 92.3551 67.64 92.1536 67.1243C91.7724 66.0837 91.3902 65.0401 91.0069 63.9937C90.7259 62.9154 90.4442 61.8342 90.1618 60.7501L89.7489 59.1188L89.4936 57.4507C89.332 56.3363 89.1331 55.2226 89.0014 54.0992C88.9439 52.9684 88.8863 51.8346 88.8285 50.6979C88.8118 50.1296 88.744 49.5605 88.7692 48.9907L88.855 47.2792C88.9293 46.1385 88.932 44.9877 89.0662 43.8473C89.4331 41.5787 89.6653 39.2711 90.3422 37.0432C90.826 34.7659 91.7115 32.6021 92.5079 30.3997C94.3825 26.1103 96.7418 21.9767 99.7437 18.2664C102.796 14.6095 106.319 11.2969 110.301 8.5367C114.337 5.8619 118.75 3.722 123.42 2.199C128.132 0.806099 133.048 0.092701 138.02 0C177.545 0.0071983 215.202 0.0140991 249.454 0.020401C253.736 0.0221977 257.964 0.0238991 262.136 0.0256004C266.31 0.0513 270.418 -0.0636024 274.494 0.236599C275.516 0.242401 276.513 0.463398 277.514 0.600498C278.513 0.760399 279.513 0.890801 280.499 1.0738C281.471 1.3243 282.44 1.5737 283.404 1.8222L284.848 2.1946C285.327 2.3235 285.783 2.524 286.25 2.6848C287.177 3.025 288.102 3.3639 289.022 3.7014C289.951 4.0196 290.798 4.5215 291.684 4.92C292.55 5.36 293.453 5.7245 294.279 6.2217C295.103 6.7229 295.923 7.2219 296.74 7.7189C303.245 11.7643 308.44 17.285 312.17 23.3089C315.916 29.34 318.18 35.9166 319.068 42.3477C319.96 48.7868 319.544 55.0632 318.185 60.7492C316.816 66.4349 314.574 71.5771 311.706 75.8678L311.204 76.6904L310.636 77.4574C310.255 77.9644 309.878 78.467 309.505 78.965C309.131 79.4629 308.761 79.9563 308.395 80.445C307.996 80.9073 307.579 81.347 307.178 81.7924C306.354 82.6623 305.614 83.5836 304.766 84.3622C303.912 85.1357 303.075 85.8935 302.256 86.6352L301.644 87.1857L300.99 87.6728C300.557 87.9957 300.128 88.3149 299.705 88.6306C298.842 89.2397 298.066 89.9321 297.177 90.4142C295.443 91.4398 293.851 92.5189 292.175 93.2313C291.357 93.6233 290.561 94.0042 289.789 94.3741C289.006 94.7174 288.21 94.9644 287.458 95.2503C286.702 95.5247 285.971 95.7903 285.264 96.0468C284.551 96.281 283.837 96.4244 283.164 96.6072C282.487 96.779 281.836 96.9442 281.212 97.1027C280.9 97.1812 280.594 97.258 280.295 97.3332C279.99 97.3787 279.692 97.4232 279.4 97.4666C278.235 97.6397 277.179 97.7967 276.234 97.9371C275.294 98.1181 274.445 98.0783 273.723 98.132C273.002 98.1633 272.394 98.1896 271.903 98.2109C270.926 98.2515 270.426 98.2589 270.426 98.2589Z" fill="#263238"/>
<g opacity="0.3">
<path d="M143.792 96.4428C169.433 96.4428 190.219 75.6568 190.219 50.0159C190.219 24.375 169.433 3.58899 143.792 3.58899C118.151 3.58899 97.3652 24.375 97.3652 50.0159C97.3652 75.6568 118.151 96.4428 143.792 96.4428Z" fill="#252525"/>
</g>
<path d="M139.449 95.6866C165.09 95.6866 185.876 74.9005 185.876 49.2596C185.876 23.6187 165.09 2.83267 139.449 2.83267C113.808 2.83267 93.022 23.6187 93.022 49.2596C93.022 74.9005 113.808 95.6866 139.449 95.6866Z" fill="#455A64"/>
<path d="M185.876 49.2596C185.876 49.2596 185.845 49.0049 185.811 48.5081C185.779 47.9955 185.734 47.2615 185.674 46.304C185.646 45.8184 185.614 45.2769 185.58 44.6808C185.518 44.0862 185.391 43.442 185.287 42.7411C185.177 42.0402 185.058 41.2864 184.93 40.4808C184.834 39.6683 184.534 38.844 184.325 37.9485C183.51 34.3608 181.834 30.1207 179.188 25.6257C176.521 21.1498 172.672 16.4729 167.427 12.5025C166.769 12.0118 166.102 11.5152 165.428 11.0129C164.726 10.5524 163.986 10.1306 163.255 9.6798C162.508 9.2552 161.801 8.73871 161 8.37581C160.208 7.9959 159.408 7.6121 158.6 7.22431C158.195 7.0324 157.789 6.8394 157.38 6.64551C156.955 6.49061 156.527 6.335 156.098 6.17851C155.239 5.8655 154.372 5.5495 153.497 5.2305C152.613 4.93841 151.689 4.7501 150.774 4.50131C149.85 4.2918 148.941 3.9665 147.978 3.8678C146.067 3.5966 144.136 3.2025 142.135 3.1913C141.139 3.1568 140.135 3.0594 139.124 3.07511C138.112 3.12721 137.093 3.1797 136.066 3.23271C135.554 3.2683 135.036 3.26481 134.523 3.3326C134.011 3.4112 133.498 3.49021 132.983 3.56941C131.954 3.73971 130.909 3.86001 129.875 4.0739C127.836 4.6284 125.724 5.04201 123.716 5.8807L122.184 6.44261C121.929 6.539 121.669 6.62501 121.417 6.7302L120.676 7.08771C119.688 7.56481 118.693 8.04471 117.693 8.52741C116.718 9.0562 115.782 9.67211 114.817 10.2449C114.344 10.5474 113.84 10.8053 113.39 11.1466L112.03 12.1647C110.153 13.453 108.511 15.0644 106.792 16.6164C106.013 17.474 105.231 18.3357 104.445 19.2015L103.854 19.8513L103.324 20.5532L102.267 21.968L101.205 23.3887L100.275 24.9078L99.3469 26.4369L98.8811 27.2037C98.7416 27.4682 98.6187 27.7421 98.4865 28.0112C97.9659 29.0924 97.4433 30.1778 96.9187 31.2675C96.5026 32.4029 96.0849 33.5428 95.6657 34.6868C94.1601 39.3211 93.3493 44.2436 93.2828 49.2526C93.3487 54.2633 94.1573 59.1877 95.6626 63.8238C96.0816 64.9682 96.4992 66.1085 96.9151 67.2444C97.4399 68.3343 97.9627 69.4201 98.4834 70.5015L98.8775 71.3095L99.3434 72.0766L100.272 73.606L101.202 75.1259L102.264 76.5469L103.321 77.962L103.851 78.6644L104.442 79.3144C105.228 80.1803 106.011 81.0423 106.789 81.9C108.509 83.4527 110.151 85.0644 112.028 86.3531L113.388 87.3714C113.838 87.7131 114.343 87.9708 114.816 88.2734C115.781 88.8463 116.717 89.4623 117.692 89.9913C118.692 90.4741 119.687 90.9541 120.676 91.4312L121.416 91.7888C121.669 91.8941 121.929 91.9801 122.184 92.0765L123.716 92.6385C125.724 93.4773 127.837 93.8909 129.876 94.4455C130.91 94.6592 131.956 94.7797 132.984 94.95C133.499 95.0292 134.013 95.1082 134.524 95.1868C135.037 95.2543 135.556 95.2511 136.068 95.2866C137.095 95.3395 138.114 95.3921 139.126 95.4442C140.137 95.4595 141.141 95.3623 142.137 95.3278C144.139 95.3166 146.07 94.9219 147.98 94.6509C148.944 94.5523 149.853 94.2264 150.777 94.0171C151.692 93.7682 152.616 93.5803 153.5 93.2876C154.375 92.9686 155.242 92.6526 156.101 92.3395C156.53 92.1831 156.958 92.0274 157.383 91.8725C157.792 91.6785 158.199 91.4855 158.603 91.2934C159.411 90.9056 160.211 90.5218 161.003 90.1419C161.804 89.7784 162.511 89.2623 163.258 88.8376C163.989 88.3867 164.729 87.9652 165.431 87.5042C166.105 87.0019 166.771 86.5053 167.43 86.0145C172.674 82.0439 176.523 77.3668 179.19 72.891C181.835 68.396 183.511 64.1563 184.326 60.569C184.534 59.6736 184.835 58.8494 184.93 58.037C185.058 57.2315 185.177 56.4777 185.288 55.777C185.391 55.0761 185.518 54.4321 185.58 53.8376C185.614 53.2415 185.646 52.7002 185.674 52.2146C185.734 51.2573 185.779 50.5234 185.811 50.011C185.845 49.5142 185.876 49.2596 185.876 49.2596C185.876 49.2596 185.881 49.5142 185.865 50.0118C185.845 50.5256 185.816 51.2614 185.779 52.2212C185.758 52.7086 185.735 53.252 185.709 53.8502C185.655 54.4473 185.537 55.0943 185.441 55.7986C185.337 56.5031 185.226 57.2609 185.106 58.0707C185.018 58.8877 184.724 59.7172 184.522 60.6184C183.734 64.2289 182.078 68.5024 179.44 73.04C176.78 77.5582 172.925 82.2862 167.653 86.3074C166.991 86.8043 166.321 87.3072 165.643 87.8158C164.937 88.2831 164.193 88.7107 163.457 89.1677C162.705 89.5985 161.993 90.1207 161.187 90.4901C160.39 90.8757 159.584 91.2653 158.77 91.659C158.362 91.8538 157.952 92.0497 157.54 92.2465C157.112 92.4041 156.681 92.5625 156.249 92.7216C155.383 93.0398 154.509 93.361 153.627 93.6852C152.736 93.9828 151.803 94.1755 150.881 94.4289C149.949 94.6427 149.032 94.9728 148.06 95.0754C146.132 95.3543 144.183 95.7558 142.163 95.7724C141.158 95.8097 140.144 95.9092 139.122 95.896C138.101 95.8455 137.072 95.7946 136.035 95.7433C135.517 95.7084 134.994 95.7122 134.476 95.6451C133.959 95.5668 133.44 95.4882 132.919 95.4093C131.88 95.2394 130.824 95.119 129.779 94.9048C127.718 94.3494 125.583 93.933 123.552 93.0896L122.003 92.5237C121.745 92.4266 121.483 92.3399 121.228 92.2338L120.479 91.8739C119.479 91.393 118.473 90.9092 117.461 90.4226C116.475 89.8893 115.528 89.2686 114.552 88.6904C114.074 88.3851 113.563 88.1247 113.108 87.7801L111.732 86.7528C109.834 85.4517 108.171 83.8255 106.433 82.2566C105.644 81.3902 104.852 80.5197 104.057 79.6451L103.46 78.9882L102.923 78.2788L101.853 76.8491L100.778 75.4128L99.8369 73.877L98.8971 72.331L98.4259 71.5555L98.0266 70.7388C97.4996 69.6455 96.9705 68.5478 96.4394 67.4458C96.0182 66.2973 95.5953 65.1443 95.1709 63.9872C93.6465 59.2993 92.8279 54.3188 92.762 49.2526C92.8284 44.188 93.6494 39.2093 95.1741 34.5233C95.5986 33.3665 96.0216 32.2141 96.443 31.066C96.974 29.9643 97.5029 28.8669 98.0297 27.7738C98.1636 27.5018 98.2882 27.225 98.4295 26.9577L98.9006 26.1824L99.8402 24.6368L100.782 23.1017L101.856 21.6658L102.926 20.2364L103.463 19.5274L104.06 18.8707C104.855 17.9963 105.647 17.126 106.435 16.2598C108.174 14.6916 109.836 13.0658 111.734 11.7649L113.11 10.7379C113.565 10.3937 114.075 10.1331 114.553 9.82791C115.53 9.24991 116.476 8.62911 117.462 8.09611C118.473 7.60961 119.479 7.12591 120.479 6.64501L121.228 6.2852C121.483 6.1792 121.746 6.0924 122.004 5.99531L123.552 5.42961C125.583 4.58631 127.717 4.1699 129.778 3.61461C130.823 3.40021 131.879 3.2799 132.918 3.1101C133.439 3.03121 133.957 2.9526 134.474 2.8742C134.992 2.80691 135.516 2.8109 136.033 2.77601C137.07 2.72471 138.099 2.6738 139.12 2.6233C140.142 2.6097 141.155 2.7095 142.161 2.74671C144.181 2.7633 146.129 3.1642 148.057 3.4433C149.029 3.546 149.946 3.8755 150.878 4.0896C151.801 4.34281 152.733 4.53591 153.624 4.83291C154.506 5.15711 155.38 5.4783 156.245 5.7964C156.678 5.95561 157.109 6.1139 157.537 6.2715C157.949 6.46831 158.359 6.664 158.767 6.85871C159.581 7.25231 160.387 7.642 161.184 8.0276C161.99 8.39641 162.702 8.919 163.454 9.34971C164.19 9.8065 164.934 10.2345 165.64 10.7013C166.318 11.2099 166.988 11.7127 167.65 12.2097C172.922 16.2305 176.778 20.9584 179.438 25.4766C182.077 30.0142 183.733 34.2882 184.522 37.8991C184.724 38.8004 185.017 39.63 185.106 40.447C185.225 41.257 185.337 42.0149 185.441 42.7194C185.537 43.4239 185.655 44.071 185.709 44.6681C185.735 45.2665 185.758 45.8099 185.779 46.2974C185.816 47.2574 185.845 47.9934 185.864 48.5072C185.881 49.0049 185.876 49.2596 185.876 49.2596Z" fill="#263238"/>
<g opacity="0.3">
<path d="M156.226 61.0482L145.555 50.4595L156.144 39.789L150.014 33.7056L139.425 44.3761L128.755 33.7875L122.671 39.9178L133.342 50.5065L122.753 61.1769L128.884 67.2603L139.472 56.5898L150.143 67.1785L156.226 61.0482Z" fill="#252525"/>
</g>
<path d="M270.447 215.133H138.027C110.965 215.133 89.0276 193.195 89.0276 166.134V166.134C89.0276 139.072 110.965 117.134 138.027 117.134H270.447C297.508 117.134 319.446 139.072 319.446 166.134V166.134C319.446 193.195 297.508 215.133 270.447 215.133Z" fill="#E0E0E0"/>
<path d="M270.447 215.133C270.447 215.133 270.947 215.09 271.922 215.032C272.413 215.003 273.019 214.968 273.739 214.927C274.459 214.865 275.305 214.896 276.242 214.707C277.184 214.559 278.237 214.394 279.397 214.213C279.687 214.167 279.985 214.121 280.288 214.074C280.586 213.997 280.891 213.918 281.201 213.838C281.823 213.676 282.471 213.507 283.144 213.332C283.815 213.145 284.525 212.999 285.235 212.762C285.938 212.502 286.665 212.234 287.417 211.956C288.164 211.668 288.956 211.418 289.734 211.073C290.502 210.701 291.293 210.318 292.106 209.924C293.771 209.208 295.353 208.126 297.075 207.099C297.958 206.616 298.728 205.923 299.584 205.314C300.004 204.999 300.43 204.68 300.86 204.357L301.508 203.87L302.116 203.32C302.928 202.58 303.758 201.823 304.605 201.051C305.447 200.274 306.18 199.355 306.997 198.487C307.394 198.043 307.808 197.605 308.203 197.144C308.566 196.657 308.933 196.165 309.302 195.669C309.672 195.173 310.046 194.672 310.422 194.167L310.986 193.403L311.482 192.584C314.322 188.311 316.537 183.196 317.884 177.546C319.221 171.896 319.621 165.662 318.724 159.273C317.831 152.892 315.574 146.372 311.85 140.395C308.142 134.426 302.983 128.959 296.529 124.957C295.719 124.466 294.905 123.972 294.088 123.476C293.269 122.984 292.374 122.625 291.514 122.189C290.636 121.796 289.797 121.298 288.876 120.985C287.963 120.651 287.047 120.316 286.127 119.98C285.664 119.822 285.213 119.623 284.738 119.496L283.307 119.129C282.351 118.884 281.391 118.637 280.428 118.39C279.451 118.21 278.46 118.082 277.47 117.925C276.478 117.79 275.491 117.571 274.478 117.567C270.456 117.274 266.326 117.39 262.157 117.369C257.985 117.371 253.757 117.372 249.475 117.374C215.222 117.381 177.566 117.387 138.04 117.395C133.121 117.488 128.257 118.193 123.594 119.57C118.975 121.077 114.608 123.193 110.613 125.839C106.673 128.57 103.186 131.847 100.165 135.465C97.1927 139.136 94.8575 143.226 93.0001 147.469C92.2122 149.649 91.3335 151.789 90.8547 154.043C90.1829 156.247 89.9539 158.531 89.5884 160.776C89.455 161.905 89.4527 163.044 89.3782 164.173L89.292 165.867C89.2665 166.431 89.3339 166.995 89.3502 167.557C89.4067 168.683 89.463 169.805 89.5191 170.925C89.6492 172.037 89.8459 173.139 90.005 174.242L90.2563 175.894L90.6645 177.509C90.9433 178.582 91.2214 179.653 91.4987 180.72C91.8776 181.756 92.2554 182.789 92.6322 183.82C92.8314 184.33 92.9842 184.86 93.2207 185.353L93.9316 186.829C95.6954 190.83 98.2071 194.391 100.889 197.686C101.606 198.474 102.32 199.26 103.031 200.044L103.566 200.63L104.152 201.163L105.322 202.226C106.824 203.708 108.545 204.902 110.203 206.152C110.608 206.478 111.046 206.754 111.494 207.015L112.817 207.82L114.137 208.622L114.795 209.021L115.488 209.355C117.337 210.235 119.136 211.195 121.065 211.811C122.018 212.141 122.945 212.543 123.91 212.812C124.88 213.062 125.847 213.311 126.81 213.559L128.253 213.925L129.72 214.15C130.695 214.299 131.667 214.448 132.635 214.597C133.605 214.729 134.586 214.719 135.554 214.787C136.526 214.827 137.489 214.907 138.456 214.913C140.393 214.915 142.313 214.916 144.217 214.917C159.449 214.928 173.638 214.939 186.592 214.949C212.493 214.984 233.453 215.012 247.949 215.031C255.187 215.053 260.808 215.069 264.63 215.08C266.531 215.092 267.983 215.1 268.969 215.106C269.946 215.115 270.447 215.133 270.447 215.133C270.447 215.133 269.946 215.151 268.969 215.159C267.983 215.165 266.531 215.174 264.63 215.185C260.808 215.197 255.187 215.213 247.949 215.234C233.453 215.254 212.493 215.282 186.592 215.317C173.638 215.327 159.449 215.337 144.217 215.349C142.313 215.35 140.393 215.351 138.456 215.352C137.488 215.347 136.511 215.267 135.532 215.228C134.555 215.161 133.566 215.171 132.587 215.039C131.61 214.891 130.629 214.742 129.644 214.592L128.164 214.367L126.706 213.999C125.734 213.749 124.758 213.499 123.778 213.247C122.805 212.976 121.868 212.573 120.905 212.24C118.958 211.62 117.14 210.653 115.273 209.766L114.574 209.43L113.908 209.028L112.576 208.219L111.238 207.407C110.786 207.145 110.344 206.866 109.935 206.537C108.26 205.277 106.521 204.072 105.003 202.578L103.822 201.505L103.23 200.967L102.689 200.376C101.969 199.586 101.248 198.792 100.524 197.996C97.812 194.672 95.274 191.077 93.4889 187.038L92.7702 185.546C92.5312 185.048 92.376 184.514 92.1745 183.998C91.7933 182.958 91.4111 181.914 91.0278 180.868C90.7469 179.789 90.4651 178.708 90.1827 177.624L89.7698 175.993L89.5145 174.325C89.3529 173.21 89.154 172.097 89.0223 170.973C88.9648 169.842 88.9072 168.709 88.8494 167.572C88.8327 167.004 88.7649 166.434 88.7901 165.865L88.8759 164.153C88.9502 163.012 88.9529 161.862 89.0871 160.721C89.454 158.453 89.6862 156.145 90.3631 153.917C90.8469 151.64 91.7324 149.476 92.5288 147.274C94.4034 142.984 96.7627 138.851 99.7646 135.14C102.817 131.484 106.34 128.171 110.322 125.411C114.358 122.736 118.771 120.596 123.441 119.073C128.153 117.68 133.069 116.967 138.04 116.874C177.566 116.881 215.222 116.888 249.475 116.894C253.757 116.896 257.985 116.898 262.157 116.9C266.331 116.925 270.439 116.81 274.515 117.111C275.537 117.116 276.534 117.337 277.535 117.474C278.534 117.634 279.534 117.765 280.52 117.948C281.492 118.198 282.461 118.448 283.425 118.696L284.869 119.069C285.348 119.197 285.804 119.398 286.271 119.559C287.198 119.899 288.123 120.238 289.043 120.575C289.972 120.894 290.818 121.395 291.704 121.794C292.571 122.234 293.474 122.598 294.3 123.096C295.124 123.597 295.944 124.096 296.761 124.593C303.266 128.638 308.461 134.159 312.191 140.183C315.937 146.214 318.2 152.791 319.089 159.222C319.981 165.661 319.565 171.937 318.206 177.623C316.837 183.309 314.595 188.451 311.726 192.742L311.225 193.564L310.656 194.331C310.276 194.838 309.899 195.341 309.526 195.839C309.152 196.337 308.782 196.83 308.416 197.319C308.017 197.781 307.6 198.221 307.199 198.666C306.375 199.536 305.635 200.458 304.786 201.236C303.933 202.01 303.096 202.767 302.277 203.509L301.664 204.06L301.011 204.547C300.578 204.87 300.149 205.189 299.725 205.505C298.863 206.114 298.087 206.806 297.198 207.288C295.464 208.314 293.872 209.393 292.196 210.105C291.378 210.497 290.582 210.878 289.81 211.248C289.026 211.591 288.23 211.838 287.479 212.124C286.723 212.399 285.992 212.664 285.285 212.921C284.572 213.155 283.858 213.298 283.185 213.481C282.508 213.653 281.857 213.818 281.233 213.977C280.92 214.055 280.615 214.132 280.316 214.207C280.011 214.253 279.712 214.297 279.421 214.341C278.256 214.514 277.2 214.671 276.255 214.811C275.315 214.992 274.466 214.952 273.744 215.006C273.023 215.037 272.415 215.064 271.924 215.085C270.947 215.125 270.447 215.133 270.447 215.133Z" fill="#263238"/>
<path d="M236.63 169.591C236.294 169.851 228.092 174.663 228.092 174.663L222.198 179.631L224.902 171.602C224.902 171.602 224.35 169.553 222.817 171.893C221.284 174.233 215.897 183.221 215.897 183.221L211.151 189.942L217.411 199.004C217.411 199.004 222.034 196.339 224.195 195.453C226.356 194.566 231.085 193.8 232.46 194.139C233.836 194.478 240.462 193.977 240.724 193.197C240.987 192.416 239.985 191.706 238.198 191.849C236.412 191.993 230.31 191.676 230.09 190.485C229.871 189.293 241.225 187.654 242.083 186.949C242.942 186.245 243.132 184.943 240.117 185.045C237.103 185.148 231.07 186.469 230.087 185.331C229.105 184.193 231.824 183.494 232.159 183.235C232.495 182.975 238.837 180.644 240.137 179.293C240.969 178.428 240.07 176.686 238.282 177.201C236.495 177.717 229.638 181.148 228.333 180.953C226.875 180.735 230.142 177.96 230.632 177.629C233.941 175.397 237.429 173.728 237.48 171.492C237.509 170.198 236.63 169.591 236.63 169.591Z" fill="#FFBF9D"/>
<path d="M217.411 199.004L200.651 206.654L199.24 192.884L211.151 189.942L217.411 199.004Z" fill="#FFBF9D"/>
<path d="M199.522 209.867C193.353 213.025 188.787 211.073 186.346 207.62C183.657 203.817 174.621 151.968 174.621 151.968L176.063 146.498C176.063 146.498 183.228 148.795 185.084 152.639C186.941 156.483 198.642 185.985 198.642 185.985L208.47 184.608C211.112 190.284 214.307 195.403 216.9 199.295L199.522 209.867Z" fill="#731FB6"/>
<g opacity="0.3">
<path d="M262.963 213.317C288.603 213.317 309.389 192.531 309.389 166.89C309.389 141.249 288.603 120.463 262.963 120.463C237.322 120.463 216.536 141.249 216.536 166.89C216.536 192.531 237.322 213.317 262.963 213.317Z" fill="#252525"/>
</g>
<path d="M269.038 212.56C294.679 212.56 315.465 191.774 315.465 166.134C315.465 140.493 294.679 119.707 269.038 119.707C243.397 119.707 222.611 140.493 222.611 166.134C222.611 191.774 243.397 212.56 269.038 212.56Z" fill="#E37EE7"/>
<path d="M315.465 166.134C315.465 166.134 315.435 165.879 315.401 165.382C315.369 164.87 315.323 164.135 315.264 163.178C315.235 162.692 315.204 162.151 315.169 161.555C315.107 160.96 314.981 160.316 314.877 159.615C314.766 158.914 314.647 158.16 314.52 157.355C314.424 156.542 314.123 155.718 313.915 154.822C313.1 151.235 311.424 146.995 308.778 142.5C306.111 138.024 302.261 133.347 297.017 129.377C296.358 128.886 295.692 128.389 295.018 127.887C294.315 127.426 293.576 127.005 292.844 126.554C292.098 126.129 291.39 125.613 290.59 125.25C289.798 124.87 288.998 124.486 288.19 124.098C287.785 123.906 287.378 123.713 286.969 123.519C286.544 123.365 286.117 123.209 285.687 123.053C284.828 122.74 283.961 122.423 283.086 122.104C282.203 121.812 281.278 121.624 280.364 121.375C279.44 121.166 278.531 120.84 277.567 120.742C275.657 120.471 273.726 120.077 271.725 120.065C270.729 120.031 269.725 119.933 268.713 119.949C267.702 120.001 266.682 120.054 265.656 120.107C265.143 120.142 264.625 120.139 264.112 120.207C263.601 120.285 263.087 120.364 262.572 120.443C261.544 120.614 260.498 120.734 259.464 120.948C257.426 121.502 255.314 121.916 253.306 122.755L251.773 123.317C251.518 123.413 251.259 123.499 251.006 123.604L250.266 123.962C249.277 124.439 248.283 124.919 247.282 125.401C246.307 125.93 245.372 126.546 244.406 127.119C243.934 127.421 243.429 127.679 242.979 128.021L241.62 129.039C239.742 130.327 238.101 131.938 236.381 133.49C235.603 134.348 234.82 135.21 234.034 136.075L233.444 136.725L232.913 137.427L231.856 138.842L230.795 140.263L229.865 141.782L228.936 143.311L228.471 144.078C228.331 144.342 228.208 144.616 228.076 144.885C227.555 145.966 227.033 147.052 226.508 148.141C226.092 149.277 225.674 150.417 225.255 151.561C223.75 156.195 222.939 161.118 222.872 166.127C222.938 171.137 223.747 176.062 225.252 180.698C225.671 181.842 226.089 182.982 226.505 184.118C227.029 185.208 227.552 186.294 228.073 187.375L228.467 188.184L228.933 188.951L229.862 190.48L230.791 192L231.853 193.421L232.91 194.836L233.441 195.538L234.031 196.188C234.817 197.054 235.6 197.916 236.379 198.774C238.098 200.327 239.74 201.938 241.618 203.227L242.978 204.245C243.428 204.587 243.932 204.845 244.405 205.147C245.371 205.72 246.306 206.336 247.281 206.865C248.282 207.348 249.277 207.828 250.265 208.305L251.006 208.663C251.258 208.768 251.518 208.854 251.773 208.95L253.306 209.512C255.314 210.351 257.426 210.765 259.465 211.319C260.499 211.533 261.545 211.654 262.573 211.824C263.089 211.903 263.602 211.982 264.114 212.061C264.627 212.128 265.145 212.125 265.657 212.161C266.684 212.213 267.703 212.266 268.715 212.318C269.727 212.333 270.731 212.236 271.727 212.202C273.728 212.191 275.659 211.796 277.57 211.525C278.533 211.426 279.442 211.1 280.367 210.891C281.281 210.642 282.206 210.454 283.089 210.162C283.964 209.843 284.831 209.527 285.69 209.214C286.12 209.057 286.547 208.901 286.972 208.746C287.381 208.552 287.788 208.359 288.193 208.167C289.001 207.78 289.801 207.396 290.593 207.016C291.393 206.652 292.101 206.136 292.847 205.712C293.579 205.261 294.319 204.839 295.02 204.378C295.695 203.876 296.361 203.379 297.02 202.889C302.264 198.918 306.113 194.241 308.779 189.765C311.424 185.27 313.101 181.03 313.915 177.443C314.123 176.548 314.424 175.723 314.52 174.911C314.647 174.105 314.766 173.352 314.877 172.651C314.981 171.95 315.107 171.306 315.169 170.712C315.204 170.115 315.235 169.574 315.264 169.089C315.323 168.131 315.369 167.397 315.401 166.885C315.435 166.388 315.465 166.134 315.465 166.134C315.465 166.134 315.47 166.388 315.454 166.886C315.434 167.4 315.406 168.135 315.368 169.095C315.347 169.583 315.324 170.126 315.299 170.724C315.245 171.321 315.126 171.968 315.03 172.673C314.927 173.377 314.815 174.135 314.696 174.945C314.607 175.762 314.313 176.591 314.112 177.492C313.323 181.103 311.668 185.376 309.029 189.914C306.37 194.432 302.514 199.16 297.243 203.181C296.581 203.678 295.91 204.181 295.233 204.69C294.527 205.157 293.782 205.585 293.046 206.042C292.295 206.473 291.583 206.995 290.777 207.364C289.979 207.75 289.173 208.139 288.36 208.533C287.952 208.728 287.542 208.924 287.13 209.12C286.701 209.278 286.271 209.436 285.838 209.596C284.972 209.914 284.098 210.235 283.216 210.559C282.325 210.857 281.393 211.049 280.47 211.303C279.538 211.517 278.621 211.847 277.649 211.949C275.722 212.228 273.773 212.63 271.753 212.646C270.747 212.684 269.733 212.783 268.712 212.77C267.69 212.719 266.661 212.669 265.624 212.617C265.107 212.582 264.583 212.586 264.065 212.519C263.548 212.441 263.03 212.362 262.509 212.283C261.47 212.113 260.413 211.993 259.368 211.779C257.307 211.223 255.173 210.807 253.142 209.964L251.593 209.398C251.335 209.301 251.072 209.214 250.817 209.108L250.068 208.748C249.068 208.267 248.062 207.783 247.05 207.297C246.064 206.763 245.118 206.143 244.141 205.564C243.663 205.259 243.153 204.999 242.698 204.654L241.322 203.627C239.423 202.326 237.761 200.699 236.022 199.131C235.234 198.264 234.442 197.394 233.646 196.519L233.049 195.862L232.512 195.153L231.442 193.723L230.368 192.287L229.426 190.751L228.487 189.205L228.015 188.429L227.616 187.613C227.089 186.519 226.56 185.422 226.029 184.32C225.608 183.171 225.185 182.018 224.76 180.861C223.236 176.173 222.417 171.193 222.351 166.127C222.418 161.062 223.239 156.083 224.764 151.397C225.188 150.241 225.611 149.088 226.032 147.94C226.563 146.838 227.092 145.741 227.619 144.648C227.753 144.376 227.878 144.099 228.019 143.832L228.49 143.056L229.43 141.511L230.371 139.976L231.445 138.54L232.515 137.11L233.052 136.401L233.649 135.745C234.445 134.87 235.237 134 236.025 133.134C237.763 131.566 239.425 129.94 241.324 128.639L242.699 127.612C243.155 127.268 243.665 127.007 244.143 126.702C245.119 126.124 246.065 125.503 247.051 124.97C248.063 124.484 249.069 124 250.069 123.519L250.817 123.159C251.072 123.053 251.335 122.966 251.593 122.869L253.142 122.304C255.172 121.46 257.307 121.044 259.368 120.489C260.412 120.274 261.469 120.154 262.508 119.984C263.028 119.905 263.547 119.827 264.064 119.748C264.582 119.681 265.105 119.685 265.623 119.65C266.659 119.599 267.689 119.548 268.71 119.497C269.731 119.484 270.745 119.583 271.75 119.621C273.77 119.637 275.719 120.038 277.646 120.317C278.618 120.42 279.536 120.749 280.468 120.964C281.39 121.217 282.322 121.41 283.213 121.707C284.095 122.031 284.969 122.352 285.835 122.67C286.268 122.83 286.698 122.988 287.127 123.146C287.539 123.342 287.949 123.538 288.357 123.733C289.17 124.126 289.976 124.516 290.773 124.902C291.58 125.27 292.292 125.793 293.043 126.224C293.779 126.681 294.524 127.109 295.23 127.575C295.908 128.084 296.578 128.587 297.24 129.084C302.512 133.104 306.368 137.832 309.028 142.351C311.667 146.888 313.323 151.162 314.111 154.773C314.313 155.674 314.607 156.504 314.696 157.321C314.815 158.131 314.927 158.889 315.03 159.593C315.126 160.298 315.245 160.945 315.299 161.542C315.324 162.14 315.347 162.684 315.368 163.171C315.406 164.131 315.434 164.867 315.454 165.381C315.47 165.879 315.465 166.134 315.465 166.134Z" fill="#263238"/>
<path d="M158.746 82.8811C156.295 81.3253 155.703 77.7168 157.031 75.1358C158.359 72.5549 161.177 70.9874 164.043 70.5251C168.19 69.8558 172.626 71.3257 175.553 74.3391C177.134 75.9677 178.415 78.0922 180.56 78.8386C182.445 79.4946 184.53 78.9023 186.509 79.1589C189.162 79.5026 191.436 81.3887 192.797 83.6923C194.158 85.9959 194.719 88.6824 195.033 91.3392C195.321 93.7776 195.512 96.4537 197.203 98.2332C198.853 99.9686 201.459 100.336 203.511 101.571C207.37 103.893 208.621 109.647 206.075 113.363C205.263 114.547 204.097 115.634 204.003 117.067C203.917 118.376 204.762 119.541 205.159 120.791C206.178 124.009 203.543 127.833 200.173 128.027C198.471 128.125 196.648 127.461 195.123 128.222C193.608 128.978 193.044 130.805 192.075 132.193C190.168 134.924 186.18 135.954 183.19 134.488C181.939 133.874 180.757 132.861 179.366 132.954C177.978 133.048 176.885 134.233 175.519 134.497C173.731 134.843 172.033 133.526 170.97 132.048C169.907 130.569 169.166 128.827 167.805 127.617C166.023 126.032 163.52 125.64 161.265 124.864C156.289 123.15 152.131 119.201 150.163 114.319C148.195 109.438 148.452 103.708 150.848 99.0225" fill="#263238"/>
<path d="M184.674 114.925C185.183 114.377 185.915 113.864 186.663 113.616L186.511 113.607C186.652 113.569 186.794 113.552 186.937 113.535C187.486 113.405 188.03 113.433 188.491 113.727L188.477 113.726C189.328 114.039 190.078 114.663 190.489 115.478C191.203 116.894 190.938 118.702 189.976 119.964C189.14 121.061 187.702 121.78 186.362 121.454C185.131 121.155 184.218 120.039 183.869 118.821C183.488 117.488 183.731 115.941 184.674 114.925Z" fill="#455A64"/>
<path d="M152.338 140.988L149.734 93.1841C149.632 91.0796 151.158 89.2476 153.246 88.9668L174.618 82.9141C181.491 81.9892 186.316 90.3477 186.949 97.2541C187.651 104.927 188.207 114.323 187.459 120.084C185.955 131.668 176.464 133.422 176.464 133.422C176.46 133.383 176.394 145.219 176.464 149.411L179.098 162.406L152.338 140.988Z" fill="#FFBF9D"/>
<path d="M183.971 107.334C184.021 108.114 183.401 108.8 182.587 108.867C181.775 108.933 181.075 108.357 181.025 107.576C180.975 106.796 181.595 106.11 182.407 106.043C183.221 105.976 183.921 106.554 183.971 107.334Z" fill="#263238"/>
<path d="M185.047 102.204C184.87 102.402 183.726 101.605 182.134 101.654C180.544 101.681 179.399 102.533 179.221 102.343C179.133 102.259 179.311 101.905 179.808 101.52C180.298 101.138 181.142 100.755 182.134 100.731C183.125 100.708 183.97 101.049 184.46 101.409C184.96 101.771 185.135 102.115 185.047 102.204Z" fill="#263238"/>
<path d="M170.245 107.334C170.295 108.114 169.675 108.8 168.861 108.867C168.049 108.933 167.349 108.357 167.299 107.577C167.249 106.796 167.869 106.11 168.681 106.043C169.495 105.976 170.195 106.554 170.245 107.334Z" fill="#263238"/>
<path d="M169.412 102.945C169.233 103.143 168.088 102.346 166.498 102.396C164.908 102.422 163.763 103.274 163.584 103.084C163.497 103 163.672 102.647 164.172 102.262C164.662 101.879 165.506 101.496 166.498 101.472C167.489 101.449 168.333 101.791 168.824 102.151C169.322 102.512 169.499 102.856 169.412 102.945Z" fill="#263238"/>
<path d="M175.523 114.584C175.513 114.494 176.497 114.295 178.095 114.044C178.5 113.991 178.882 113.899 178.943 113.62C179.03 113.323 178.848 112.891 178.637 112.423C178.227 111.451 177.798 110.431 177.348 109.363C175.553 105.004 174.242 101.415 174.418 101.345C174.594 101.274 176.192 104.749 177.986 109.108C178.418 110.183 178.832 111.208 179.226 112.189C179.393 112.646 179.672 113.162 179.482 113.778C179.381 114.084 179.089 114.313 178.831 114.391C178.572 114.478 178.344 114.489 178.143 114.506C176.532 114.639 175.531 114.675 175.523 114.584Z" fill="#263238"/>
<path d="M176.464 133.422C176.464 133.422 169.413 134.108 161.595 129.706C161.595 129.706 164.934 138.284 176.446 136.877L176.464 133.422Z" fill="#FF9A6C"/>
<path d="M175.395 118.375C174.593 117.309 173.317 116.677 172.122 116.757C171.293 116.812 170.491 117.219 170.06 117.956C169.629 118.692 169.633 119.772 170.171 120.527C170.777 121.376 171.887 121.625 172.78 121.382C173.673 121.139 174.398 120.502 175.083 119.867C175.272 119.691 175.466 119.507 175.569 119.257C175.674 119.007 175.667 118.673 175.484 118.451" fill="#FF9A6C"/>
<path d="M170.87 115.818C171.129 115.796 171.181 117.523 172.695 118.708C174.205 119.896 176.042 119.65 176.062 119.891C176.089 119.999 175.661 120.238 174.885 120.281C174.123 120.329 173.003 120.116 172.077 119.391C171.153 118.665 170.737 117.673 170.658 116.966C170.571 116.245 170.752 115.812 170.87 115.818Z" fill="#263238"/>
<path d="M169.929 96.3731C169.784 96.8102 168.189 96.6504 166.329 96.9285C164.462 97.1691 162.972 97.7584 162.713 97.3774C162.597 97.1948 162.848 96.7804 163.445 96.344C164.036 95.9085 164.988 95.4838 166.105 95.327C167.223 95.1726 168.254 95.3212 168.942 95.5787C169.636 95.8357 169.99 96.1659 169.929 96.3731Z" fill="#263238"/>
<path d="M184.331 96.7426C184.062 97.1118 182.955 96.7681 181.636 96.7877C180.316 96.7613 179.208 97.0997 178.94 96.729C178.822 96.5486 178.988 96.1815 179.466 95.8254C179.937 95.4708 180.733 95.1692 181.64 95.1709C182.547 95.174 183.341 95.4792 183.81 95.8365C184.286 96.1946 184.45 96.5625 184.331 96.7426Z" fill="#263238"/>
<path d="M194.723 94.8312C194.186 93.1033 193.198 91.4544 191.681 90.4668C190.851 89.9255 189.886 89.5957 189.114 88.9728C187.447 87.6275 187.061 85.2858 186.032 83.4072C184.706 80.9861 182.143 79.286 179.397 79.0053C177.111 78.7716 174.757 79.4574 172.529 78.8958C170.882 78.4806 169.444 77.4117 167.776 77.0947C164.527 76.4773 161.507 78.8086 159.152 81.1299C159.143 83.4554 160.996 85.0106 162.779 86.503C164.562 87.9954 167.022 88.6446 169.309 88.2264C171.084 87.9019 173.029 87.0049 174.566 87.9505C176.181 88.945 176.248 91.3806 177.681 92.6247C179.729 94.4021 182.985 92.7343 185.585 93.5053C187.593 94.1007 188.847 96.0198 190.181 97.6341C191.515 99.2486 193.512 100.784 195.52 100.188C195.392 98.3828 195.261 96.559 194.723 94.8312Z" fill="#263238"/>
<path d="M170.33 85.002C168.874 84.5853 165.894 83.6422 165.112 82.379C163.416 79.6353 160.425 77.7621 157.369 77.9292C154.313 78.0962 151.379 80.5094 150.754 83.7367C147.056 83.7644 143.448 86.087 141.673 89.5819C141.452 90.0189 141.259 90.4721 141.097 90.9372C139.945 92.9636 139.724 95.5055 140.559 97.6851C141.063 99.0004 141.921 100.464 141.245 101.699C140.556 102.956 138.816 102.996 137.46 103.463C135.102 104.276 133.574 106.986 134.098 109.424C134.287 110.299 134.705 111.173 134.523 112.049C134.333 112.962 133.552 113.606 132.953 114.319C131.463 116.09 131.002 118.669 131.786 120.846C132.571 123.023 134.571 124.716 136.847 125.13C137.884 125.318 139.007 125.274 139.904 125.826C140.932 126.459 141.382 127.697 142.108 128.662C143.499 130.512 146.118 131.332 148.316 130.606C148.762 130.458 149.175 130.236 149.564 129.978C150.258 130.941 151.346 131.592 153.209 131.592L152.781 107.275C153.013 107.787 153.458 108.249 154.255 108.43C158.158 109.313 158.728 101.27 157.857 99.0897C159.269 97.8361 160.697 96.5647 161.774 94.972C162.851 93.3792 163.8 89.0365 163.57 87.0814C164.977 87.1638 170.97 85.185 170.33 85.002Z" fill="#263238"/>
<path d="M153.856 109.253C153.732 106.781 150.708 106.253 148.566 107.491C147.39 108.171 146.49 109.538 146.598 112.162C146.886 119.16 153.852 117.427 153.856 117.226C153.858 117.101 154.001 112.147 153.856 109.253Z" fill="#FFBF9D"/>
<path d="M151.609 114.662C151.577 114.641 151.491 114.753 151.288 114.856C151.091 114.956 150.749 115.034 150.378 114.912C149.628 114.671 148.957 113.523 148.871 112.263C148.827 111.627 148.935 111.015 149.14 110.504C149.333 109.983 149.649 109.612 150.019 109.53C150.385 109.43 150.658 109.642 150.752 109.835C150.854 110.027 150.815 110.168 150.853 110.179C150.873 110.195 150.998 110.055 150.93 109.769C150.895 109.631 150.806 109.469 150.636 109.341C150.463 109.212 150.213 109.153 149.955 109.191C149.417 109.251 148.952 109.767 148.726 110.328C148.471 110.894 148.334 111.582 148.384 112.296C148.487 113.705 149.263 114.994 150.287 115.245C150.784 115.353 151.189 115.188 151.394 115.014C151.604 114.832 151.634 114.674 151.609 114.662Z" fill="#FF9A6C"/>
<path d="M160.695 83.1125C160.747 83.1868 159.99 83.313 159.299 84.2815C158.606 85.2347 158.346 87.062 158.784 89.1206L158.822 89.2973L158.65 89.3401C156.919 89.7713 155.012 91.1475 154.141 93.312C153.936 93.8462 153.796 94.4374 153.779 95.019C153.776 95.6117 153.883 96.2322 153.998 96.868C154.111 97.5044 154.241 98.1616 154.264 98.8592C154.312 99.5434 154.129 100.337 153.71 100.924C152.84 102.248 151.441 102.9 150.239 103.532C149.002 104.146 147.859 104.773 146.989 105.66C145.218 107.405 144.427 109.661 144.376 111.524C144.308 113.412 144.84 114.904 145.298 115.848C145.763 116.804 146.153 117.259 146.114 117.288C146.1 117.299 145.998 117.191 145.815 116.974C145.641 116.75 145.387 116.413 145.128 115.937C144.607 115 144.003 113.481 144.027 111.515C144.035 109.571 144.823 107.191 146.669 105.338C147.574 104.394 148.795 103.715 150.018 103.102C151.22 102.47 152.538 101.824 153.296 100.655C154.071 99.5933 153.724 98.206 153.52 96.9525C153.409 96.3138 153.298 95.6705 153.305 95.0105C153.33 94.3421 153.486 93.7245 153.714 93.1431C154.677 90.8206 156.716 89.4067 158.563 88.9849L158.428 89.2042C158.014 87.0468 158.342 85.1549 159.134 84.1622C159.517 83.6684 159.937 83.4014 160.229 83.2698C160.531 83.1488 160.689 83.0955 160.695 83.1125Z" fill="#455A64"/>
<path d="M148.995 117.282C149.504 116.734 150.235 116.221 150.984 115.973L150.832 115.964C150.972 115.925 151.115 115.909 151.258 115.892C151.807 115.762 152.351 115.79 152.812 116.084L152.798 116.083C153.649 116.396 154.399 117.02 154.81 117.835C155.524 119.251 155.259 121.059 154.297 122.321C153.461 123.418 152.023 124.137 150.683 123.811C149.452 123.512 148.539 122.396 148.19 121.178C147.808 119.845 148.052 118.298 148.995 117.282Z" fill="#455A64"/>
<path d="M163.765 402.296L186.031 403.912C184.084 408.986 183.248 413.719 183.248 413.719C177.008 415.852 169.121 415.288 162.436 412.798L163.765 402.296Z" fill="#FFBF9D"/>
<path d="M183.685 410.47L183.706 411.796C183.706 411.796 206.291 420.552 206.581 424.813L161.95 425.122L162.454 410.267C169.111 413.294 176.058 413.592 183.685 410.47Z" fill="#521491"/>
<path d="M167.006 414.984C166.144 415.226 165.554 416.201 165.76 417.072C165.967 417.944 166.953 418.552 167.819 418.325C168.686 418.098 169.43 416.949 169.127 416.107C168.825 415.264 167.627 414.613 166.841 415.04" fill="white"/>
<path d="M161.95 425.122L162.071 421.549L204.803 422.561C204.803 422.561 206.796 423.412 206.581 424.813L161.95 425.122Z" fill="#263238"/>
<path d="M183.863 411.92C183.858 412.138 182.769 412.244 181.701 412.952C180.615 413.633 180.069 414.58 179.868 414.495C179.667 414.454 179.983 413.149 181.29 412.315C182.59 411.468 183.909 411.719 183.863 411.92Z" fill="#263238"/>
<path d="M188.558 413.823C188.609 414.034 187.668 414.411 186.934 415.338C186.173 416.243 185.993 417.242 185.776 417.234C185.571 417.269 185.412 415.994 186.346 414.859C187.27 413.716 188.552 413.616 188.558 413.823Z" fill="#263238"/>
<path d="M191.255 419.408C191.057 419.455 190.747 418.369 191.298 417.171C191.841 415.97 192.866 415.492 192.959 415.673C193.083 415.851 192.426 416.496 191.988 417.486C191.527 418.465 191.472 419.385 191.255 419.408Z" fill="#263238"/>
<path d="M87.4573 388.394C86.0646 394.205 80.6282 411.737 80.6282 411.737L100.45 413.719C100.928 410.797 108.7 398.684 109.946 394.988L87.4573 388.394Z" fill="#FFBF9D"/>
<path d="M101.83 410.95L101.598 412.256C101.598 412.256 122.092 425.166 121.563 429.405L77.6957 421.179L81.8314 407.774C85.1705 411.002 93.7473 412.557 101.83 410.95Z" fill="#521491"/>
<path d="M84.5961 412.193C83.7037 412.266 82.9381 413.11 82.9743 414.005C83.0103 414.9 83.8624 415.686 84.7562 415.629C85.6497 415.572 86.6002 414.586 86.4638 413.701C86.328 412.816 85.2768 411.948 84.4232 412.217" fill="white"/>
<path d="M77.6953 421.179L78.4973 417.694L120.248 426.855C120.248 426.855 122.042 428.07 121.563 429.405L77.6953 421.179Z" fill="#263238"/>
<path d="M101.728 412.407C101.681 412.62 100.592 412.516 99.4086 413.007C98.2127 413.468 97.4956 414.294 97.3142 414.172C97.1246 414.093 97.6842 412.872 99.127 412.303C100.564 411.721 101.812 412.219 101.728 412.407Z" fill="#263238"/>
<path d="M105.973 415.173C105.983 415.39 104.987 415.58 104.089 416.35C103.169 417.093 102.802 418.038 102.591 417.989C102.383 417.985 102.47 416.702 103.604 415.767C104.729 414.821 106.007 414.968 105.973 415.173Z" fill="#263238"/>
<path d="M107.553 421.17C107.35 421.179 107.253 420.053 108.023 418.983C108.785 417.907 109.882 417.634 109.939 417.829C110.027 418.028 109.259 418.536 108.64 419.424C108.001 420.297 107.77 421.189 107.553 421.17Z" fill="#263238"/>
<path d="M153.128 155.843C153.603 156.697 170.378 194.487 170.378 194.487L202.076 183.271L210.395 197.95C210.395 197.95 174.519 221.543 165.025 220.902C155.531 220.262 153.912 218.494 150.408 211.05C146.112 201.922 133.07 168.362 133.07 168.362C133.07 168.362 128.963 149.824 141.451 148.565C149.251 147.779 153.128 155.843 153.128 155.843Z" fill="#731FB6"/>
<path d="M179.764 233.965C179.764 233.965 212.439 320.011 210.766 331.027C209.093 342.042 189.182 407.774 189.182 407.774L160.502 405.833L175.844 329.451L150.003 276.45L154.456 222.709L181.422 225.488L179.764 233.965Z" fill="#263238"/>
<path d="M132.233 218.407L129.957 224.395C125.644 230.117 118.548 240.939 116.363 247.528C113.273 256.846 114.997 286.215 114.997 286.215L111.946 329.451C111.946 329.451 103.512 346.276 98.9928 355.721C95.086 363.888 82.6292 400.426 82.6292 400.426L107.409 407.774C107.409 407.774 141.956 348.143 145.046 340.422C148.136 332.7 154.842 270.657 154.842 270.657L166.047 223.903L132.233 218.407Z" fill="#263238"/>
<path d="M124.24 235.402C124.267 235.292 125.757 235.713 128.217 235.893C129.445 235.994 130.916 235.976 132.535 235.829C134.151 235.649 135.913 235.32 137.707 234.768C139.494 234.193 141.127 233.453 142.555 232.675C143.967 231.868 145.183 231.041 146.132 230.254C148.045 228.697 149.025 227.5 149.11 227.574C149.141 227.599 148.912 227.909 148.47 228.452C148.253 228.728 147.976 229.054 147.618 229.4C147.265 229.749 146.882 230.172 146.394 230.565C145.461 231.405 144.245 232.286 142.817 233.135C141.373 233.956 139.708 234.728 137.88 235.316C136.044 235.882 134.237 236.202 132.584 236.356C130.927 236.478 129.426 236.453 128.181 236.298C127.555 236.255 126.999 236.128 126.509 236.044C126.018 235.966 125.603 235.857 125.268 235.755C124.595 235.563 124.23 235.44 124.24 235.402Z" fill="#455A64"/>
<path d="M176.275 331.602C176.185 331.49 178.603 329.596 182.073 328.142C185.535 326.67 188.58 326.259 188.597 326.401C188.634 326.572 185.692 327.227 182.296 328.672C178.893 330.097 176.371 331.747 176.275 331.602Z" fill="#455A64"/>
<path d="M112.523 329.273C112.558 329.127 114.305 329.468 116.238 330.47C118.177 331.463 119.468 332.687 119.37 332.801C119.266 332.932 117.854 331.942 115.975 330.981C114.102 330.009 112.476 329.434 112.523 329.273Z" fill="#455A64"/>
<path d="M174.92 227.115C174.937 227.121 174.874 227.369 174.737 227.836C174.579 228.35 174.372 229.027 174.113 229.872C173.532 231.688 172.721 234.221 171.727 237.329C170.696 240.488 169.477 244.224 168.125 248.367C167.772 249.404 167.464 250.47 167.041 251.558C166.612 252.637 166.065 253.695 165.4 254.701C164.744 255.704 163.94 256.676 163.052 257.512C162.185 258.383 161.305 259.266 160.415 260.16C158.855 261.722 157.329 263.252 155.862 264.721L155.935 264.57C154.889 273.033 153.969 280.478 153.302 285.874C152.956 288.499 152.676 290.624 152.475 292.152C152.373 292.847 152.292 293.406 152.229 293.838C152.168 294.221 152.128 294.421 152.112 294.419C152.096 294.417 152.105 294.214 152.136 293.827C152.176 293.392 152.229 292.83 152.294 292.13C152.458 290.598 152.686 288.467 152.968 285.834C153.591 280.433 154.45 272.981 155.426 264.51L155.436 264.422L155.499 264.359C156.962 262.89 158.485 261.36 160.04 259.798C160.93 258.906 161.809 258.025 162.676 257.156C163.577 256.308 164.323 255.404 164.975 254.42C165.623 253.444 166.158 252.419 166.579 251.374C166.99 250.332 167.313 249.245 167.67 248.216C169.061 244.086 170.316 240.362 171.378 237.213C172.437 234.127 173.301 231.611 173.92 229.808C174.218 228.976 174.456 228.309 174.637 227.803C174.806 227.347 174.903 227.11 174.92 227.115Z" fill="#455A64"/>
<g opacity="0.3">
<path d="M236.663 189.165C236.4 188.751 235.859 188.633 235.376 188.551C232.832 188.119 230.288 187.687 227.745 187.255C228.182 186.001 229.506 185.281 230.79 184.941C232.074 184.6 233.437 184.514 234.644 183.959C235.85 183.403 236.903 182.166 236.663 180.86C233.04 181.457 229.272 181.15 225.793 179.975C228.523 178.944 231.254 177.912 233.985 176.881C234.582 176.655 235.194 176.421 235.673 176C236.152 175.578 236.478 174.921 236.331 174.3C236.054 173.128 234.467 172.902 233.288 173.149C231.794 173.463 230.394 174.119 228.92 174.517C227.447 174.915 225.798 175.029 224.458 174.298C226.155 173.558 227.873 172.804 229.318 171.647C230.763 170.49 231.926 168.861 232.118 167.02C226.988 168.747 222.78 172.444 218.96 176.279C215.14 180.114 211.499 184.226 206.932 187.133L209.799 196.95C214.814 194.498 220.001 192.001 225.574 191.704C228.756 191.535 232.021 192.089 235.092 191.24C235.581 191.105 236.08 190.923 236.43 190.557C236.781 190.19 236.936 189.593 236.663 189.165Z" fill="#252525"/>
</g>
<path d="M232.521 163.559C232.185 163.819 223.983 168.631 223.983 168.631L218.088 173.599L220.792 165.57C220.792 165.57 220.241 163.521 218.708 165.861C217.175 168.201 211.788 177.189 211.788 177.189L207.042 183.91L213.302 192.972C213.302 192.972 217.925 190.307 220.086 189.421C222.247 188.534 226.975 187.767 228.351 188.107C229.727 188.446 236.352 187.945 236.615 187.165C236.878 186.384 235.876 185.674 234.089 185.817C232.302 185.961 226.201 185.644 225.981 184.452C225.761 183.261 237.116 181.622 237.974 180.917C238.832 180.213 239.022 178.911 236.008 179.013C232.993 179.116 226.961 180.437 225.978 179.298C224.996 178.161 227.714 177.462 228.05 177.202C228.386 176.943 234.728 174.612 236.028 173.261C236.86 172.396 235.961 170.654 234.173 171.169C232.385 171.685 225.528 175.116 224.224 174.921C222.766 174.703 226.033 171.928 226.523 171.597C229.832 169.365 233.32 167.695 233.371 165.46C233.4 164.166 232.521 163.559 232.521 163.559Z" fill="#FFBF9D"/>
<path d="M213.302 192.972L196.542 200.622L195.13 186.852L207.041 183.91L213.302 192.972Z" fill="#FFBF9D"/>
<path d="M151.742 134.686C152.456 135.044 171.409 144.345 171.409 144.345L177.487 152.686C177.487 152.686 186.05 192.038 184.978 198.291C183.906 204.543 177.117 225.927 176.402 225.749L132.233 218.407L132.213 218.308C131.638 215.469 132.054 212.518 133.392 209.949L137.421 202.21L129.957 166.486C129.957 166.486 128.523 156.08 133.275 151.147C138.219 146.015 149.248 139.429 149.248 139.429L151.742 134.686Z" fill="#731FB6"/>
<path d="M175.603 151.851C175.569 151.877 175.112 151.344 174.33 150.376C173.493 149.316 172.402 147.934 171.104 146.289L171.472 146.218C171.108 147.586 170.706 149.095 170.276 150.712L170.206 150.976L169.949 150.875C168.251 150.214 166.414 149.436 164.531 148.557C160.093 146.483 156.263 144.232 153.586 142.47C152.244 141.595 151.189 140.84 150.467 140.308C149.752 139.769 149.366 139.457 149.387 139.428C149.408 139.398 149.833 139.654 150.583 140.141C151.338 140.621 152.421 141.327 153.784 142.159C156.501 143.836 160.338 146.023 164.752 148.085C166.624 148.96 168.447 149.743 170.129 150.419L169.802 150.582C170.258 148.972 170.683 147.47 171.069 146.107L171.186 145.694L171.437 146.036C172.677 147.724 173.72 149.144 174.519 150.232C175.245 151.243 175.637 151.825 175.603 151.851Z" fill="#263238"/>
<path d="M176.7 152.84L176.76 158.557L172.398 225.488H181.422C181.422 225.488 193.703 196.629 193.346 187.519C193.086 180.895 187.972 168.611 185.495 160.963C184.256 157.137 181.89 152.286 181.89 152.286C179.977 150.582 179.599 150.252 179.599 149.866L180.409 146.186L176.432 142.52L176.464 149.411L176.7 152.84Z" fill="#731FB6"/>
<path d="M178.913 223.559C178.895 223.55 178.989 223.307 179.183 222.853C179.406 222.348 179.696 221.693 180.057 220.88C180.456 220.032 180.898 218.975 181.397 217.743C181.652 217.126 181.923 216.469 182.21 215.776C182.468 215.065 182.739 214.317 183.024 213.533C185.355 207.297 187.56 198.132 186.885 187.931C186.527 182.844 185.537 178.074 184.44 173.797C183.24 169.543 181.935 165.776 180.699 162.667C180.074 161.124 179.506 159.723 179.002 158.48C178.462 157.284 177.993 156.244 177.598 155.37C177.241 154.555 176.953 153.899 176.731 153.393C176.539 152.939 176.446 152.695 176.464 152.687C176.482 152.678 176.609 152.904 176.835 153.343C177.082 153.837 177.403 154.478 177.801 155.275C178.221 156.139 178.721 157.167 179.296 158.35C179.824 159.586 180.42 160.981 181.076 162.515C182.365 165.615 183.716 169.386 184.951 173.657C186.083 177.953 187.097 182.759 187.458 187.893C188.142 198.196 185.845 207.448 183.405 213.673C183.106 214.455 182.821 215.202 182.55 215.911C182.247 216.602 181.962 217.255 181.693 217.869C181.164 219.093 180.691 220.14 180.26 220.974C179.859 221.77 179.536 222.41 179.287 222.904C179.059 223.342 178.931 223.568 178.913 223.559Z" fill="#263238"/>
<path d="M184.07 157.159C184.105 157.14 184.338 157.506 184.731 158.186C185.133 158.862 185.651 159.873 186.266 161.137C187.472 163.672 188.952 167.275 190.154 171.394C191.376 175.508 192.072 179.348 192.35 182.147C192.479 183.548 192.517 184.688 192.505 185.474C192.477 186.262 192.443 186.694 192.404 186.693C192.307 186.692 192.321 184.959 191.946 182.194C191.568 179.431 190.816 175.641 189.602 171.557C188.409 167.468 187.001 163.869 185.896 161.305C184.78 158.744 183.986 157.204 184.07 157.159Z" fill="#263238"/>
<path d="M153.128 155.843C153.603 156.697 170.378 194.487 170.378 194.487L202.076 183.271L210.395 197.95C210.395 197.95 174.519 221.543 165.025 220.902C155.531 220.262 153.912 218.494 150.408 211.05C147.211 204.257 138.251 185.461 133.875 176.288C131.673 171.671 130.737 166.531 131.347 161.452C132.045 155.64 134.428 149.238 141.451 148.565C149.255 147.817 153.128 155.843 153.128 155.843Z" fill="#731FB6"/>
<path d="M150.893 152.686C150.822 152.765 150.009 151.811 148.283 150.905C146.574 149.994 143.871 149.375 140.915 149.459C137.97 149.7 135.516 151.099 134.006 152.28C132.464 153.484 131.862 154.576 131.781 154.52C131.755 154.506 131.874 154.219 132.182 153.751C132.486 153.28 133.016 152.657 133.771 151.996C135.273 150.705 137.764 149.199 140.882 148.939C143.954 148.849 146.719 149.551 148.459 150.582C149.327 151.091 149.956 151.614 150.343 152.016C150.736 152.414 150.916 152.666 150.893 152.686Z" fill="#263238"/>
<path d="M162.763 205.291C162.702 205.268 162.897 204.522 163.375 203.374C163.852 202.227 164.639 200.688 165.718 199.123C166.801 197.558 167.962 196.278 168.866 195.426C169.771 194.572 170.399 194.126 170.442 194.175C170.553 194.295 168.262 196.331 166.147 199.419C164.009 202.489 162.914 205.352 162.763 205.291Z" fill="#263238"/>
<path d="M133.875 176.288C133.875 176.288 133.967 176.44 134.123 176.747C134.285 177.074 134.511 177.529 134.802 178.115C135.399 179.343 136.262 181.12 137.369 183.398C139.587 188.016 142.78 194.665 146.722 202.872C147.707 204.929 148.738 207.084 149.812 209.329C150.913 211.556 151.907 213.972 153.441 216.131C154.21 217.201 155.168 218.16 156.349 218.821C157.529 219.485 158.88 219.87 160.268 220.121C161.661 220.369 163.095 220.531 164.556 220.63C165.996 220.774 167.436 220.481 168.877 220.083C171.757 219.276 174.588 218.02 177.441 216.7C180.292 215.361 183.146 213.871 186.025 212.305C191.778 209.165 197.616 205.695 203.519 202.02C205.8 200.597 208.051 199.171 210.252 197.733L210.169 198.078C207.32 193.046 204.542 188.138 201.857 183.395L202.161 183.509C190.553 187.6 179.831 191.38 170.448 194.687L170.263 194.752L170.184 194.573C164.992 182.849 160.712 173.184 157.721 166.427C156.248 163.067 155.093 160.431 154.296 158.613C153.915 157.727 153.62 157.042 153.412 156.557C153.215 156.091 153.128 155.843 153.128 155.843C153.128 155.843 153.253 156.07 153.468 156.526C153.69 157.003 154.003 157.679 154.407 158.553C155.228 160.358 156.418 162.977 157.935 166.315C160.968 173.057 165.308 182.702 170.571 194.401L170.307 194.288C179.681 190.958 190.395 187.152 201.992 183.033L202.192 182.962L202.296 183.146C204.985 187.887 207.767 192.792 210.62 197.822L210.741 198.034L210.537 198.167C208.33 199.61 206.078 201.037 203.795 202.462C197.885 206.141 192.038 209.613 186.268 212.753C183.382 214.32 180.518 215.81 177.653 217.15C174.782 218.472 171.939 219.73 169.005 220.545C167.551 220.946 166.02 221.252 164.521 221.098C163.052 220.995 161.602 220.827 160.183 220.571C158.769 220.31 157.371 219.911 156.131 219.209C154.887 218.51 153.879 217.489 153.091 216.384C151.52 214.153 150.541 211.731 149.449 209.5C148.385 207.25 147.364 205.091 146.389 203.029C142.511 194.792 139.369 188.12 137.186 183.486C136.117 181.189 135.284 179.398 134.707 178.16C134.436 177.564 134.226 177.102 134.075 176.77C133.935 176.455 133.875 176.288 133.875 176.288Z" fill="#263238"/>
<g opacity="0.3">
<path d="M270.057 180.252L253.305 168.275L257.485 162.429L268.718 170.461L283.582 152.015L289.177 156.524L270.057 180.252Z" fill="#252525"/>
</g>
</svg>
